<svg viewBox="0 0 175 36" xmlns="http://www.w3.org/2000/svg"><g fill="none" fill-rule="evenodd"><path fill="#335B4D" d="M0 .333V32.75h11.828l5.506 3.18V22.97l-5.506-3.18h8.75v12.96h11.828V.333z" class="brandLogo__icon"></path> <path d="M152.144 27.524V30.9c0 .191.018.354.053.49a.71.71 0 00.184.331.83.83 0 00.347.193c.143.043.324.063.547.063.225 0 .412-.02.56-.063a.751.751 0 00.35-.201.72.72 0 00.177-.338c.032-.136.05-.294.05-.475v-3.375h.979v3.51c0 .638-.182 1.097-.546 1.375-.365.279-.891.419-1.578.419-.342 0-.643-.03-.904-.092-.261-.06-.48-.16-.659-.3a1.324 1.324 0 01-.407-.554 2.27 2.27 0 01-.14-.848v-3.51h.987zm6.382-.083c.281 0 .54.019.775.056.236.038.422.082.557.132v.837a1.933 1.933 0 00-.256-.071c-.1-.023-.21-.044-.328-.065a3.851 3.851 0 00-.364-.045 4.075 4.075 0 00-.355-.015c-.316 0-.547.043-.696.127-.147.086-.222.26-.222.52 0 .1.01.185.03.253.02.069.064.128.132.18.068.053.164.102.29.148.125.045.291.092.497.143.305.075.558.155.757.24.198.086.355.192.47.317.116.126.198.276.245.452.048.176.072.387.072.633 0 .512-.157.898-.467 1.157-.311.258-.809.388-1.49.388a5.717 5.717 0 01-.89-.06c-.135-.02-.258-.04-.37-.06a2.02 2.02 0 01-.278-.07v-.88c.08.03.178.057.295.083a5.686 5.686 0 00.786.116c.143.013.285.019.425.019.362 0 .62-.05.776-.154.155-.103.234-.288.234-.554a.996.996 0 00-.041-.304.481.481 0 00-.156-.22 1.04 1.04 0 00-.312-.166 6.113 6.113 0 00-.523-.154 4.702 4.702 0 01-.689-.211 1.328 1.328 0 01-.444-.282.943.943 0 01-.241-.407 2.036 2.036 0 01-.072-.584c0-.532.157-.916.47-1.148.314-.235.775-.35 1.383-.35zm-52.623.007c.376 0 .708.042.997.124.288.083.532.226.73.43.198.204.348.478.449.824.1.348.15.784.15 1.312 0 .533-.05.973-.15 1.319-.1.346-.25.622-.449.825a1.597 1.597 0 01-.73.425c-.289.08-.621.12-.997.12-.378 0-.711-.04-1.002-.12a1.569 1.569 0 01-.731-.425c-.196-.203-.346-.479-.448-.825-.103-.346-.155-.786-.155-1.319 0-.528.052-.964.155-1.312.102-.346.252-.62.448-.823a1.59 1.59 0 01.73-.43 3.66 3.66 0 011.003-.125zm4.144.076l1.333 4.181h.046l1.37-4.18h1.017l-1.822 5.228h-1.229l-1.791-5.229h1.076zm58.911 0v.859h-2.108v1.266h1.958v.82h-1.958v1.417h2.245v.867h-3.232v-5.229h3.095zm-92.61 0v4.362h2.147v.867h-3.134v-5.229h.987zm-26.35 0c.351 0 .656.028.911.087.257.057.465.15.626.278.16.129.28.296.357.501.078.207.117.458.117.753 0 .443-.082.783-.244 1.02-.164.24-.42.407-.765.502l1.499 2.088h-1.16l-1.303-1.974h-.678v1.974h-.987v-5.229h1.627zm13.07 0v5.229h-.988v-5.229h.987zm-6.44 0v.859h-2.109v1.266h1.958v.82H54.52v1.417h2.245v.867h-3.231v-5.229h3.094zm78.388 0v.859h-2.108v1.266h1.959v.82h-1.959v1.417h2.245v.867h-3.231v-5.229h3.094zm-67.648 0l1.943 5.229h-1.047l-.482-1.387h-2.185l-.497 1.387h-1.016l1.958-5.229h1.326zm31.959 0l1.9 3.94h.043v-3.94h.965v5.229h-1.34l-2.065-4.19h-.044v4.19h-.972v-5.229h1.513zm17.848 0l1.943 5.229h-1.048l-.482-1.387h-2.184l-.497 1.387h-1.016l1.958-5.229h1.326zm28.114 0v.866h-1.423v4.362h-.987V28.39h-1.416v-.866h3.826zm19.506 0v.866h-1.424v4.362h-.987V28.39h-1.416v-.866h3.827zm-82.137 0v.859H80.55v1.266h1.959v.82H80.55v1.417h2.245v.867h-3.231v-5.229h3.094zm40.247 0v.866h-1.424v4.362h-.987V28.39h-1.415v-.866h3.826zm-32.332 0v5.229h-.987v-5.229h.987zm-31.556 0v4.362h2.146v.867H58.03v-5.229h.988zm65.944 0v5.229h-.987v-5.229h.987zm2.136 0l1.332 4.181h.046l1.37-4.18h1.017l-1.822 5.228h-1.229l-1.791-5.229h1.077zm44.806 0c.381 0 .728.033 1.04.102.31.068.578.196.799.388.22.19.392.457.515.798.123.342.185.783.185 1.327 0 .506-.062.927-.185 1.26a1.993 1.993 0 01-.515.802c-.221.202-.488.344-.798.427-.313.083-.66.124-1.041.124h-1.694v-5.228h1.694zm-78.483 0l1.899 3.94h.044v-3.94h.965v5.229h-1.34l-2.065-4.19h-.044v4.19h-.972v-5.229h1.513zm-21.421 0c.367 0 .672.028.914.087.244.057.438.144.582.26.141.115.242.26.3.437.058.175.086.38.086.617 0 .272-.056.5-.168.683-.114.183-.31.316-.592.402v.03c.327.076.561.214.704.418.144.203.214.467.214.788 0 .236-.028.448-.085.636-.06.188-.16.346-.305.475-.146.128-.34.226-.584.294-.244.067-.55.101-.915.101h-1.83v-5.228h1.679zm75.813 0c.351 0 .655.028.91.087.258.057.466.15.626.278.16.129.28.296.358.501.077.207.116.458.116.753 0 .443-.081.783-.244 1.02-.163.24-.418.407-.764.502l1.499 2.088h-1.16l-1.303-1.974h-.678v1.974h-.987v-5.229h1.627zm-41.91.738c-.266 0-.484.035-.656.106a.833.833 0 00-.399.331c-.095.15-.16.345-.195.583-.035.24-.053.525-.053.856 0 .341.018.63.053.867.035.235.1.426.195.572a.824.824 0 00.4.32c.17.068.39.101.656.101.265 0 .482-.033.65-.101a.82.82 0 00.396-.32c.094-.146.16-.337.196-.572.035-.237.053-.526.053-.867 0-.331-.018-.616-.053-.856a1.513 1.513 0 00-.196-.583.83.83 0 00-.396-.331 1.697 1.697 0 00-.65-.106zm-34.01 2.192h-.586v1.492h.587c.226 0 .413-.01.56-.03a.861.861 0 00.356-.117.463.463 0 00.184-.23c.035-.095.053-.218.053-.369 0-.135-.018-.252-.053-.346a.47.47 0 00-.184-.23.984.984 0 00-.355-.129 3.226 3.226 0 00-.561-.04zm99.967-2.094h-.663v3.54h.663c.25 0 .474-.026.67-.082.195-.055.36-.15.494-.282a1.27 1.27 0 00.3-.54c.068-.225.101-.511.101-.857 0-.363-.035-.659-.105-.89a1.275 1.275 0 00-.309-.547 1.045 1.045 0 00-.493-.27 2.746 2.746 0 00-.658-.072zm-32.915 1.152v1.084h-1.083v-1.084h1.083zm-52.254 0v1.084h-1.083v-1.084h1.083zm29.86-1.107h-.092l-.76 2.132h1.597l-.746-2.132zm-49.808 0h-.09l-.761 2.132h1.597l-.746-2.132zm80.935-.083h-.505v1.703h.505c.21 0 .388-.01.534-.034a.867.867 0 00.358-.128.54.54 0 00.204-.268c.042-.115.064-.266.064-.452 0-.17-.022-.308-.064-.414a.525.525 0 00-.204-.249.91.91 0 00-.358-.124 3.569 3.569 0 00-.534-.034zm-97.814 0h-.505v1.703h.505c.21 0 .389-.01.534-.034a.867.867 0 00.358-.128.538.538 0 00.204-.268c.042-.115.064-.266.064-.452 0-.17-.022-.308-.064-.414a.522.522 0 00-.204-.249.91.91 0 00-.358-.124 3.569 3.569 0 00-.534-.034zm21.872 0h-.429v1.402h.429c.206 0 .383-.01.531-.03a1.08 1.08 0 00.366-.11.503.503 0 00.21-.215.795.795 0 00.068-.354.834.834 0 00-.068-.369.464.464 0 00-.207-.207 1.04 1.04 0 00-.362-.094 5.559 5.559 0 00-.538-.023zm88.074-22.69l-.64 1.803h15.455v3.266h-2.551v4.264a91.204 91.204 0 01-4.47 2.119 58.6 58.6 0 007.015 1.734l.004.003.002.005v3.314c-3.894-.686-7.745-1.768-11.6-3.196-3.568 1.32-7.14 2.34-10.734 3.03l-.9.166v-3.313c0-.005.003-.008.007-.009a58.694 58.694 0 007.026-1.737 87.978 87.978 0 01-4.16-1.956l-.924-.472 1.404-3.952h-3.352V7.435h4.513l.64-1.803h3.265zM69.204 17.35c.283 1.787 1.011 3.337 1.386 4.169l.066.147h-3.191a.759.759 0 01-.696-.45 16.413 16.413 0 01-1.102-3.55l-.054-.316h3.591zm-16.328 0c-.27 1.701-.846 3.161-1.157 3.866a.756.756 0 01-.584.442l-.111.008h-3.191c.327-.74 1.058-2.228 1.394-3.984l.058-.332h3.59zM100.999.744v7.322h-12.15l-.972 2.733h8.446l-.491-1.384h3.265l1.441 4.057h-6.805v1.424h6.02v2.672h-6.02v1.424h7.646v2.673H82.908v-2.673h7.56v-1.424h-5.933v-2.672h5.932v-1.424h-6.805l1.92-5.406h-1.597V5.394h14.13V4.01H82.301v8.49c0 2.045-.19 4.085-.569 6.094l-.15.752-.492 2.318h-3.338l.635-2.993c.383-1.804.598-3.639.64-5.48l.008-.692V.744H101zM60.877.324v1.274h9.539v3.036h-9.54v1.154h8.88v10.407h-8.88v5.47h-3.264v-5.47h-8.847V5.788h8.847V4.634h-9.54V1.598h9.54V.323h3.265zM125.657 0v2.958h2.669V0h3.265v2.958h6.358V0h3.265v2.958h2.624v3.266h-2.624v9.494h-12.888V6.224h-2.668v11.851h17.798v3.267h-21.064V6.224h-2.241V2.958h2.241V0h3.266zm43.15 10.701H158.01l-.793 2.233a87.642 87.642 0 005.792 2.523 86.312 86.312 0 004.82-2.066l.98-.461V10.7zM57.612 8.461h-6.176v5.062h6.176v-1.385h-4.794V9.843h4.794V8.46zm9.472 0h-6.207v1.382H65.7v2.295h-4.824v1.385h6.207V8.46zm46.312.312v3.796H109.6V8.773h3.795zm24.553-2.549h-6.358v6.227h6.358V6.224zM164.354 0l.454 1.275h9.817v4.911h-3.266V4.541h-16.703v1.645h-3.266V1.275h10.152L161.09 0h3.264z" fill="#231815" class="brandLogo__text"></path></g></svg>