<svg viewBox="0 0 54 55" width="27" height="27" xmlns="http://www.w3.org/2000/svg"><g fill="none" fill-rule="evenodd"><path d="M0 0h54v54H0z"></path><path d="M22.203 32a4 4 0 013.053 1.416l1.466 1.732h1.653l1.306-1.64A4 4 0 0132.811 32H35l-4.004 5.973 2.356 7.734a4 4 0 01-.673 3.625l-.146.177-2.162 2.466-2.568-10.845h-.481L24.617 52l-2.15-2.491a4 4 0 01-.847-3.612l.064-.222 2.461-7.69L20 32h2.203zM28 5a8 8 0 018 8v6c0 2.315-.983 4.4-2.555 5.86v1.497l9.249 3.036a8 8 0 015.458 6.731l.026.284.817 11.423h-3.99l-.817-11.13a4 4 0 00-2.543-3.437l-.198-.07-9.25-3.036a4 4 0 01-2.72-3.294c-.478.09-.972.136-1.477.136h-2c-.505 0-.999-.047-1.477-.136a3.998 3.998 0 01-2.526 3.224l-.194.07-9.25 3.035a4 4 0 00-2.72 3.299l-.021.21-.817 11.129h-3.99l.817-11.423a8 8 0 015.215-6.921l.27-.094 9.249-3.036v-1.495A7.978 7.978 0 0118 19v-6a8 8 0 018-8zm0 4h-2a4 4 0 00-4 4v6a4 4 0 004 4h2a4 4 0 004-4v-6a4 4 0 00-4-4z" fill="black" fill-rule="nonzero"></path></g></svg>