<svg width="40" height="40" viewBox="0 0 40 40" xmlns="http://www.w3.org/2000/svg"><g fill="none" fill-rule="evenodd"><path d="M0 0h40v40H0z"></path><path d="M21.5 2v3.577a14.433 14.433 0 017.638 3.164l2.53-2.53 2.12 2.122-2.53 2.53a14.433 14.433 0 013.165 7.637H38v3h-3.577a14.433 14.433 0 01-3.164 7.638l2.53 2.53-2.122 2.12-2.53-2.53a14.433 14.433 0 01-7.636 3.165L21.5 38h-3v-3.577a14.433 14.433 0 01-7.638-3.164l-2.53 2.53-2.12-2.122 2.53-2.53a14.433 14.433 0 01-3.165-7.636L2 21.5v-3h3.577a14.433 14.433 0 013.164-7.638l-2.53-2.53 2.122-2.12 2.53 2.53A14.433 14.433 0 0118.5 5.576V2h3zM20 8.5C13.649 8.5 8.5 13.649 8.5 20S13.649 31.5 20 31.5 31.5 26.351 31.5 20 26.351 8.5 20 8.5zm0 5a6.5 6.5 0 110 13 6.5 6.5 0 010-13zm0 3a3.5 3.5 0 100 7 3.5 3.5 0 000-7z" fill="#A98C60" fill-rule="nonzero" style="fill: goldenrod"></path></g></svg>