<svg width="40" height="40" viewBox="0 0 40 40" xmlns="http://www.w3.org/2000/svg"><g fill="none" fill-rule="evenodd"><path d="M0 0h40v40H0z"></path><path d="M20.037 3.46l15.037 3.515v15.843a13.5 13.5 0 01-7.386 12.035l-7.651 3.887-7.651-3.887A13.5 13.5 0 015 22.818V6.975L20.037 3.46zm0 3.08L8 9.354v13.464a10.5 10.5 0 005.744 9.36l6.293 3.197 6.292-3.196a10.5 10.5 0 005.745-9.361V9.354L20.037 6.54zM20 13l2.164 4.28 4.836.686-3.5 3.33.826 4.704L20 23.779l-4.326 2.22.826-4.703-3.5-3.331 4.836-.687L20 13z" fill="#A98C60" fill-rule="nonzero" style="fill: goldenrod"></path></g></svg>