<svg width="40" height="40" viewBox="0 0 40 40" xmlns="http://www.w3.org/2000/svg"><g fill="none" fill-rule="evenodd"><path d="M0 0h40v40H0z"></path><path d="M20.514 1l.294.004c7.103.163 12.82 5.937 12.89 13.062l1.684 9.716h-2.79v3.311a3.5 3.5 0 01-3.5 3.5h-.85a1.35 1.35 0 00-1.35 1.35V36H9.574v-6.397a22.852 22.852 0 01-4.192-9.555l-.037.001-.133-1.058a22.847 22.847 0 01-.18-1.89l-.007-.157a20.685 20.685 0 01-.021-.63L5 15.887V12.89a11.88 11.88 0 015.33-9.919l.237-.153C12.4 1.667 14.567 1 16.891 1h3.623zm.452 3.01l.024.428c.007.187.01.374.01.562 0 7.446-5.438 13.662-12.607 14.81a19.834 19.834 0 003.86 8.355l.321.409V33h11.318v-1.057a4.35 4.35 0 014.35-4.35h.85a.5.5 0 00.5-.5v-6.311h2.225l-1.119-6.454V14.2c0-5.476-4.316-9.944-9.732-10.188zM17.959 4h-1.068A8.89 8.89 0 008 12.891v2.996a19.86 19.86 0 00.023.944C13.703 15.868 18 10.92 18 5c0-.336-.014-.67-.041-1z" fill="#A98C60" fill-rule="nonzero" style="fill: goldenrod"></path></g></svg>