<svg viewBox="0 0 40 40" width="40" height="40" xmlns="http://www.w3.org/2000/svg"><g fill="none" fill-rule="evenodd"><path d="M0 0h40v40H0z"></path><path d="M29.631 4c.689 0 1.248.54 1.248 1.206l-.001 4.448C34.776 12.702 37 17.199 37 22.054 37 30.847 29.597 38 20.501 38 11.403 38 4 30.848 4 22.053c0-4.749 2.17-9.222 5.952-12.264l.167-.097V5.206C10.12 4.54 10.682 4 11.37 4h18.261zM6.498 22.053c0 7.463 6.282 13.532 14.003 13.532 7.719 0 14-6.069 14-13.532 0-3.413-1.296-6.619-3.622-9.088v7.816c0 5.534-4.654 10.032-10.377 10.032-5.726 0-10.382-4.498-10.382-10.032V12.93a13.333 13.333 0 00-3.622 9.124zM28.381 6.415H12.62V20.78c0 4.202 3.535 7.618 7.88 7.618 4.344 0 7.88-3.416 7.88-7.618V6.415z" stroke="#A98C60" stroke-width=".5" fill="#A98C60" style="fill: goldenrod"></path></g></svg>