<svg width="40" height="40" viewBox="0 0 40 40" xmlns="http://www.w3.org/2000/svg"><g fill="none" fill-rule="evenodd"><path d="M0 0h40v40H0z"></path><path d="M19.5 4C28.613 4 36 11.387 36 20.5S28.613 37 19.5 37 3 29.613 3 20.5 10.387 4 19.5 4zm13.353 18.5h-7.188c-.314 3.77-1.516 7.524-3.593 11.255 5.582-1.076 9.94-5.592 10.78-11.254zm-19.77 0H6.147c.827 5.567 5.052 10.025 10.497 11.197-2.058-3.712-3.248-7.447-3.56-11.196zm9.57 0h-6.558c.314 3.294 1.403 6.601 3.278 9.932 1.877-3.33 2.966-6.638 3.28-9.931zm-6.01-15.197l-.155.034C10.796 8.634 6.474 13.527 6.036 19.5h6.985c.17-4.086 1.382-8.155 3.623-12.197zm2.732 1.265l-.082.142c-2.014 3.62-3.099 7.214-3.27 10.791h6.701c-.172-3.624-1.284-7.265-3.349-10.933zm2.697-1.323l.256.468c2.097 3.907 3.235 7.84 3.4 11.787h7.236c-.449-6.125-4.985-11.116-10.892-12.255z" fill="#A98C60" fill-rule="nonzero" style="fill: goldenrod"></path></g></svg>