<svg width="40" height="40" viewBox="0 0 40 40" xmlns="http://www.w3.org/2000/svg"><g fill="none" fill-rule="evenodd"><path d="M0 0h40v40H0z"></path><path d="M20.037 3.46l15.037 3.515v15.843a13.5 13.5 0 01-7.386 12.035l-7.651 3.887-7.651-3.887A13.5 13.5 0 015 22.818V6.975L20.037 3.46zm0 3.08L8 9.354v13.464a10.5 10.5 0 005.744 9.36l6.293 3.197 6.292-3.196a10.5 10.5 0 005.745-9.361V9.354L20.037 6.54zm6.2 8.425l2.172 2.07-8.894 9.326-6.086-6.206 2.142-2.1 3.914 3.99 6.753-7.08z" fill="#A98C60" fill-rule="nonzero" style="fill: goldenrod"></path></g></svg>