<svg viewBox="0 0 40 40" width="48" height="48" xmlns="http://www.w3.org/2000/svg"><g fill="none" fill-rule="evenodd"><path d="M0 0h40v40H0z"></path><path d="M15.61 17.803a17.593 17.593 0 006.587 6.587l1.473-2.063a1.667 1.667 0 012.157-.494 19.037 19.037 0 007.638 2.274A1.667 1.667 0 0135 25.768v7.437c0 .855-.646 1.571-1.497 1.658a25.85 25.85 0 01-2.67.137C16.567 35 5 23.433 5 9.167c0-.897.045-1.787.137-2.67A1.667 1.667 0 016.795 5h7.437c.87 0 1.593.668 1.661 1.535.21 2.678.985 5.281 2.274 7.638.405.74.193 1.667-.494 2.157l-2.063 1.473zm-4.203-1.095l3.166-2.261a22.35 22.35 0 01-1.828-6.114H8.35c-.01.277-.015.555-.015.834-.002 12.426 10.072 22.5 22.498 22.5.279 0 .557-.005.834-.017v-4.395a22.35 22.35 0 01-6.114-1.828l-2.261 3.166a20.737 20.737 0 01-2.647-1.25l-.097-.055a20.927 20.927 0 01-7.836-7.836l-.055-.097a20.737 20.737 0 01-1.25-2.647z" fill="goldenrod" fill-rule="nonzero"></path></g></svg>